<mxfile host="app.diagrams.net" modified="2023-11-19T07:46:04.082Z" agent="Mozilla/5.0 (Windows NT 10.0; Win64; x64; rv:109.0) Gecko/20100101 Firefox/119.0" version="22.1.3" etag="BF22GDrF-mwBUvGQ-nP2" type="github">
  <diagram name="Page-1" id="NxVNsBRljIgUlM-mMDjJ">
    <mxGraphModel>
      <root>
        <mxCell id="0" />
        <mxCell id="1" parent="0" />
      </root>
    </mxGraphModel>
  </diagram>
</mxfile>
